<!-- Generated by IcoMoon.io -->
<svg version="1.1" xmlns="http://www.w3.org/2000/svg" width="1024" height="1024" viewBox="0 0 1024 1024">
<title></title>
<g id="icomoon-ignore">
</g>
<path d="M321.6 766.4c12.48 12.48 32.768 12.48 45.248 0l177.152-177.152 177.152 177.152c12.48 12.48 32.768 12.48 45.248 0s12.48-32.768 0-45.248l-177.152-177.152 177.152-177.152c12.48-12.48 12.48-32.768 0-45.248s-32.768-12.48-45.248 0l-177.152 177.152-177.152-177.152c-12.48-12.48-32.768-12.48-45.248 0s-12.48 32.768 0 45.248l177.152 177.152-177.152 177.152c-12.48 12.48-12.48 32.768 0 45.248z"></path>
</svg>
