<!-- Generated by IcoMoon.io -->
<svg version="1.1" xmlns="http://www.w3.org/2000/svg" width="1024" height="1024" viewBox="0 0 1024 1024">
<title></title>
<g id="icomoon-ignore">
</g>
<path d="M544 64c-265.088 0-480 214.912-480 480s214.912 480 480 480 480-214.912 480-480-214.912-480-480-480zM646.4 729.024c12.48 12.48 12.48 32.768 0 45.248s-32.768 12.48-45.248 0l-207.552-207.552c-6.272-6.272-9.344-14.464-9.344-22.72s3.072-16.448 9.344-22.72l207.552-207.552c12.48-12.48 32.768-12.48 45.248 0s12.48 32.768 0 45.248l-185.024 185.024 185.024 185.024z"></path>
</svg>
